<?xml version="1.0" encoding="UTF-8" standalone="no"?>
<!-- Created with Inkscape (http://www.inkscape.org/) -->

<svg
   xmlns:dc="http://purl.org/dc/elements/1.1/"
   xmlns:cc="http://creativecommons.org/ns#"
   xmlns:rdf="http://www.w3.org/1999/02/22-rdf-syntax-ns#"
   xmlns:svg="http://www.w3.org/2000/svg"
   xmlns="http://www.w3.org/2000/svg"
   xmlns:sodipodi="http://sodipodi.sourceforge.net/DTD/sodipodi-0.dtd"
   xmlns:inkscape="http://www.inkscape.org/namespaces/inkscape"
   width="72"
   height="72"
   id="svg2"
   version="1.1"
   inkscape:version="0.47 r22583"
   sodipodi:docname="bell.svg">
  <defs
     id="defs4">
    <inkscape:perspective
       sodipodi:type="inkscape:persp3d"
       inkscape:vp_x="0 : 526.18109 : 1"
       inkscape:vp_y="0 : 1000 : 0"
       inkscape:vp_z="744.09448 : 526.18109 : 1"
       inkscape:persp3d-origin="372.04724 : 350.78739 : 1"
       id="perspective10" />
    <inkscape:perspective
       id="perspective2824"
       inkscape:persp3d-origin="0.5 : 0.33333333 : 1"
       inkscape:vp_z="1 : 0.5 : 1"
       inkscape:vp_y="0 : 1000 : 0"
       inkscape:vp_x="0 : 0.5 : 1"
       sodipodi:type="inkscape:persp3d" />
  </defs>
  <sodipodi:namedview
     id="base"
     pagecolor="#ffffff"
     bordercolor="#666666"
     borderopacity="1.0"
     inkscape:pageopacity="0.0"
     inkscape:pageshadow="2"
     inkscape:zoom="5.6568542"
     inkscape:cx="35.372385"
     inkscape:cy="36.957062"
     inkscape:document-units="px"
     inkscape:current-layer="layer1"
     showgrid="false"
     inkscape:window-width="1280"
     inkscape:window-height="725"
     inkscape:window-x="0"
     inkscape:window-y="24"
     inkscape:window-maximized="1"
     borderlayer="true"
     showguides="true"
     inkscape:guide-bbox="true">
    <sodipodi:guide
       position="0,0"
       orientation="0,72"
       id="guide3791" />
    <sodipodi:guide
       position="36,0"
       orientation="1,0"
       id="guide3793" />
    <sodipodi:guide
       position="36,72"
       orientation="0,1"
       id="guide3795" />
    <sodipodi:guide
       position="0,72"
       orientation="72,0"
       id="guide3797" />
  </sodipodi:namedview>
  <metadata
     id="metadata7">
    <rdf:RDF>
      <cc:Work
         rdf:about="">
        <dc:format>image/svg+xml</dc:format>
        <dc:type
           rdf:resource="http://purl.org/dc/dcmitype/StillImage" />
        <dc:title></dc:title>
      </cc:Work>
    </rdf:RDF>
  </metadata>
  <g
     inkscape:label="Layer 1"
     inkscape:groupmode="layer"
     id="layer1"
     transform="translate(0,-980.36218)">
    <path
       style="fill:#333333;fill-opacity:0.66666669;fill-rule:nonzero;stroke:none"
       d="M 36 12.59375 C 34.391108 12.59375 31.21875 13.25 31.21875 13.25 C 30.207311 13.38975 30.775157 15.36524 31.15625 16.3125 C 31.337694 16.76351 33.9375 17.34375 33.9375 17.34375 L 33.875 20.34375 C 33.875 20.34375 29.51923 21.0005 28.15625 22.1875 C 26.793269 23.3744 25.691807 23.52915 24.03125 27.46875 C 22.99287 29.93225 21.748158 41.68975 20.9375 45.34375 C 20.126842 48.99775 19.15625 49.375 19.15625 49.375 L 36 49.34375 L 52.84375 49.375 C 52.84375 49.375 51.873158 48.99775 51.0625 45.34375 C 50.251842 41.68975 49.00713 29.93225 47.96875 27.46875 C 46.308193 23.52915 45.206731 23.3744 43.84375 22.1875 C 42.48077 21.0005 38.125 20.34375 38.125 20.34375 L 38.0625 17.34375 C 38.0625 17.34375 40.662306 16.76351 40.84375 16.3125 C 41.224843 15.36524 41.792689 13.38975 40.78125 13.25 C 40.78125 13.25 37.608892 12.59375 36 12.59375 z "
       transform="translate(0,980.36218)"
       id="rect2994" />
    <path
       style="fill:#333333;fill-opacity:0.66666669;fill-rule:nonzero;stroke:none"
       d="m 55.000074,1031.7157 -37.96875,0.031 c -0.738523,6e-4 -1.02415,1.2193 -1.03125,1.9687 -0.0071,0.7495 0.239504,2.0319 1,2.0313 l 14.40625,0 c -0.0052,0.075 -0.03125,0.1419 -0.03125,0.2187 0,2.514 2.075085,4.5625 4.625,4.5625 2.549915,0 4.625,-2.0485 4.625,-4.5625 0,-0.088 -0.02452,-0.1644 -0.03125,-0.25 l 14.40625,0 c 0.744776,-6e-4 0.999416,-1.254 1,-2 5.84e-4,-0.7459 -0.252897,-2.0006 -1,-2 z"
       id="rect3789" />
  </g>
</svg>
