<?xml version="1.0" encoding="utf-8"?>
<!-- Generator: Adobe Illustrator 18.0.0, SVG Export Plug-In . SVG Version: 6.00 Build 0)  -->
<!DOCTYPE svg PUBLIC "-//W3C//DTD SVG 1.1//EN" "http://www.w3.org/Graphics/SVG/1.1/DTD/svg11.dtd">
<svg version="1.1" id="Layer_1" xmlns:sketch="http://www.bohemiancoding.com/sketch/ns"
	 xmlns="http://www.w3.org/2000/svg" xmlns:xlink="http://www.w3.org/1999/xlink" x="0px" y="0px" viewBox="0 0 32 32"
	 enable-background="new 0 0 32 32" xml:space="preserve">
<path id="trash-can" fill="#BDC2C6" d="M22.4,6.2h-2l0,0v-2c0-1.1-0.9-2-2-2h-5c-1.1,0-2,0.9-2,2v2h-2h-4v1h2v19c0,1.7,1.3,3,3,3h11
	c1.7,0,3-1.3,3-3v-19h2v-1H22.4L22.4,6.2z M11.4,9.2v17h1v-17H11.4L11.4,9.2z M15.4,9.2v17h1v-17H15.4L15.4,9.2z M19.4,9.2v17h1v-17
	H19.4L19.4,9.2z M13.4,3.2c-0.6,0-1,0.4-1,1v2h7v-2c0-0.6-0.4-1-1-1H13.4L13.4,3.2z"/>
<polygon fill="#FFFFFF" points="11.4,9.2 11.4,26.3 12.3,26.3 12.2,9.2 "/>
<polygon fill="#FFFFFF" points="15.3,9.2 15.3,26.3 16.2,26.3 16.2,9.2 "/>
<polygon fill="#FFFFFF" points="19.4,9.2 19.4,26.3 20.4,26.3 20.3,9.2 "/>
<path fill="#FFFFFF" d="M12.7,6h6.6V4.6c0,0,0-1.4-1.5-1.5s-3.7,0-3.7,0s-1.2,0-1.5,1.5V6z"/>
</svg>
